<svg xmlns="http://www.w3.org/2000/svg" width="1364.569" height="1364.565" viewBox="0 0 1364.569 1364.565">
  <g id="Group_182" data-name="Group 182" opacity="0.1">
    <g id="Group_141" data-name="Group 141" transform="translate(0)">
      <path id="Path_195" data-name="Path 195" d="M387.987,95.58C226.4,95.58,95.581,226.406,95.581,387.986a292.161,292.161,0,0,0,194.936,275.73L334.27,475.065a102.3,102.3,0,1,1,107.646-.216l43.54,188.867a292.159,292.159,0,0,0,194.938-275.73c0-161.58-130.824-292.406-292.406-292.406" transform="translate(294.298 294.295)" fill="#1fdae1"/>
      <path id="Path_196" data-name="Path 196" d="M1041.839,1262.115c193.636-120.429,322.73-334.86,322.73-579.835C1364.569,305.406,1059.167,0,682.284,0S0,305.406,0,682.28s305.41,682.285,682.284,682.285a689.09,689.09,0,0,0,97.473-6.926V979.675H584.816v180.208c-222.662-45.269-389.874-241.724-389.874-477.6,0-269.229,218.114-487.343,487.343-487.343s487.343,218.114,487.343,487.343a485.3,485.3,0,0,1-175.44,374.284Z" transform="translate(0)" fill="#1fdae1"/>
    </g>
  </g>
</svg>
