<svg id="Group_6" data-name="Group 6" xmlns="http://www.w3.org/2000/svg" width="615.225" height="242.767" viewBox="0 0 615.225 242.767">
  <g id="Group_2" data-name="Group 2" transform="translate(0 0)">
    <g id="Group_4" data-name="Group 4" transform="translate(0)">
      <path id="Path_1" data-name="Path 1" d="M325.046,132.5c0-7.514,5.979-13.339,14.871-13.339s14.872,5.519,14.872,12.878c0,7.973-5.979,13.8-14.872,13.8s-14.871-5.826-14.871-13.338m2.912,24.836h23.917v82.484H327.958Z" transform="translate(-325.046 -119.163)" fill="#1fdae1"/>
      <path id="Path_2" data-name="Path 2" d="M446.138,185.185h22.691v43.541c-11.806,8.893-28.057,13.645-43.389,13.645-33.729,0-58.567-23.151-58.567-55.5s24.838-55.5,59.026-55.5c18.858,0,34.5,6.44,44.922,18.551L454.877,164.64c-7.82-8.279-16.865-12.111-27.75-12.111-20.851,0-35.11,13.953-35.11,34.342,0,20.085,14.259,34.343,34.8,34.343a39.43,39.43,0,0,0,19.318-4.6Z" transform="translate(-327.475 -119.872)" fill="#1fdae1"/>
      <path id="Path_3" data-name="Path 3" d="M563.871,195.034V242.1H541.486V231.83c-4.445,7.512-13.031,11.5-25.143,11.5-19.318,0-30.817-10.73-30.817-24.989,0-14.566,10.272-24.684,35.416-24.684h19.011c0-10.273-6.133-16.252-19.011-16.252-8.739,0-17.785,2.913-23.764,7.665l-8.587-16.711c9.046-6.44,22.384-9.965,35.57-9.965,25.144,0,39.709,11.652,39.709,36.643m-23.917,21v-8.43h-16.4c-11.192,0-14.718,4.139-14.718,9.657,0,5.98,5.06,9.967,13.492,9.967,7.972,0,14.872-3.679,17.631-11.194" transform="translate(-334.367 -121.441)" fill="#1fdae1"/>
      <path id="Path_4" data-name="Path 4" d="M721.245,194.879V242.1H697.327V198.56c0-13.339-5.98-19.471-15.639-19.471-10.731,0-18.244,6.9-18.244,21.617v41.4H639.527V198.56c0-13.339-5.673-19.471-15.639-19.471-10.579,0-18.091,6.9-18.091,21.617v41.4H581.88V159.616h22.844v9.507c6.133-7.053,15.332-10.733,25.911-10.733,11.5,0,21.31,4.447,27.136,13.492,6.593-8.431,17.325-13.492,29.744-13.492,19.624,0,33.73,11.346,33.73,36.489" transform="translate(-339.963 -121.441)" fill="#1fdae1"/>
      <path id="Path_5" data-name="Path 5" d="M739.921,132.5c0-7.514,5.979-13.339,14.872-13.339s14.871,5.519,14.871,12.878c0,7.973-5.978,13.8-14.871,13.8s-14.872-5.826-14.872-13.338m2.913,24.836h23.917v82.484H742.834Z" transform="translate(-349.142 -119.163)" fill="#1fdae1"/>
      <path id="Path_6" data-name="Path 6" d="M865.911,194.879V242.1H841.993V198.56c0-13.339-6.133-19.471-16.711-19.471-11.5,0-19.778,7.052-19.778,22.23V242.1H781.587V159.616h22.845v9.659c6.439-7.052,16.1-10.886,27.29-10.886,19.471,0,34.19,11.346,34.19,36.489" transform="translate(-351.562 -121.441)" fill="#1fdae1"/>
      <path id="Path_7" data-name="Path 7" d="M972.581,159.616V228.3c0,30.663-16.558,44.768-46.3,44.768-15.637,0-30.816-3.834-40.475-11.345l9.5-17.171c7.052,5.673,18.551,9.352,29.13,9.352,16.866,0,24.225-7.666,24.225-22.537v-3.527c-6.287,6.9-15.332,10.272-26.065,10.272-22.843,0-41.242-15.79-41.242-39.861s18.4-39.863,41.242-39.863c11.5,0,21,3.834,27.292,11.806v-10.58ZM948.97,198.253c0-12.112-9.045-20.238-21.616-20.238s-21.773,8.126-21.773,20.238,9.2,20.237,21.773,20.237,21.616-8.126,21.616-20.237" transform="translate(-357.356 -121.441)" fill="#1fdae1"/>
      <path id="Path_8" data-name="Path 8" d="M328.214,272.191h17.714V334.3h38.379V348.73H328.214Z" transform="translate(-325.23 -128.051)" fill="#aaa"/>
      <path id="Path_9" data-name="Path 9" d="M394.958,271.6c0-5.358,4.264-9.512,10.606-9.512s10.607,3.935,10.607,9.184c0,5.686-4.265,9.841-10.607,9.841s-10.606-4.155-10.606-9.512m2.078,17.713h17.058v58.827H397.036Z" transform="translate(-329.107 -127.464)" fill="#aaa"/>
      <path id="Path_10" data-name="Path 10" d="M423.165,320.355c0-17.714,13.668-30.288,32.8-30.288,12.355,0,22.086,5.359,26.351,14.981l-13.231,7.107c-3.171-5.576-7.872-8.092-13.23-8.092-8.638,0-15.417,6.014-15.417,16.292s6.78,16.292,15.417,16.292c5.359,0,10.059-2.406,13.23-8.092l13.231,7.217c-4.265,9.4-14,14.871-26.351,14.871-19.135,0-32.8-12.575-32.8-30.288" transform="translate(-330.745 -129.089)" fill="#aaa"/>
      <path id="Path_11" data-name="Path 11" d="M553.433,325.168h-44.5c1.641,7.325,7.872,11.808,16.839,11.808,6.232,0,10.714-1.858,14.76-5.685l9.076,9.84c-5.466,6.234-13.667,9.514-24.273,9.514-20.338,0-33.568-12.793-33.568-30.288,0-17.6,13.449-30.288,31.382-30.288,17.276,0,30.615,11.59,30.615,30.507,0,1.311-.218,3.17-.329,4.593m-44.721-9.95h28.975c-1.2-7.436-6.779-12.246-14.433-12.246-7.763,0-13.339,4.7-14.542,12.246" transform="translate(-334.729 -129.089)" fill="#aaa"/>
      <path id="Path_12" data-name="Path 12" d="M626.31,316.09v33.678H609.252V318.715c0-9.513-4.373-13.887-11.918-13.887-8.2,0-14.1,5.03-14.1,15.854v29.086H566.172V290.942h16.292v6.889c4.592-5.03,11.48-7.764,19.463-7.764,13.886,0,24.383,8.092,24.383,26.023" transform="translate(-339.051 -129.089)" fill="#aaa"/>
      <path id="Path_13" data-name="Path 13" d="M638.372,344.3l5.686-12.246c5.247,3.39,13.229,5.685,20.447,5.685,7.871,0,10.824-2.077,10.824-5.358,0-9.623-35.538.218-35.538-23.29,0-11.153,10.061-19.026,27.227-19.026,8.09,0,17.058,1.859,22.633,5.14l-5.685,12.136a33.789,33.789,0,0,0-16.948-4.372c-7.655,0-10.935,2.406-10.935,5.466,0,10.06,35.537.328,35.537,23.509,0,10.934-10.17,18.7-27.774,18.7-9.948,0-20.008-2.733-25.476-6.342" transform="translate(-343.244 -129.089)" fill="#aaa"/>
      <path id="Path_14" data-name="Path 14" d="M701.17,271.6c0-5.358,4.264-9.512,10.606-9.512s10.607,3.935,10.607,9.184c0,5.686-4.265,9.841-10.607,9.841s-10.606-4.155-10.606-9.512m2.077,17.713H720.3v58.827H703.247Z" transform="translate(-346.891 -127.464)" fill="#aaa"/>
      <path id="Path_15" data-name="Path 15" d="M791.023,316.09v33.678H773.965V318.715c0-9.513-4.373-13.887-11.918-13.887-8.2,0-14.1,5.03-14.1,15.854v29.086H730.885V290.942h16.293v6.889c4.592-5.03,11.48-7.764,19.463-7.764,13.886,0,24.383,8.092,24.383,26.023" transform="translate(-348.617 -129.089)" fill="#aaa"/>
      <path id="Path_16" data-name="Path 16" d="M867.1,290.942v48.986c0,21.869-11.808,31.928-33.021,31.928-11.153,0-21.979-2.734-28.866-8.091l6.779-12.247c5.029,4.046,13.231,6.67,20.775,6.67,12.029,0,17.277-5.467,17.277-16.073V339.6c-4.485,4.921-10.935,7.325-18.589,7.325-16.292,0-29.413-11.262-29.413-28.428s13.121-28.429,29.413-28.429c8.2,0,14.979,2.734,19.463,8.419v-7.545ZM850.261,318.5c0-8.638-6.452-14.434-15.417-14.434s-15.527,5.8-15.527,14.434,6.562,14.433,15.527,14.433,15.417-5.8,15.417-14.433" transform="translate(-352.75 -129.089)" fill="#aaa"/>
    </g>
  </g>
</svg>
