<svg id="Group_248" data-name="Group 248" xmlns="http://www.w3.org/2000/svg" width="274.71" height="70.079" viewBox="0 0 274.71 70.079">
  <g id="Group_277" data-name="Group 277">
    <path id="Path_219" data-name="Path 219" d="M110.6,95.58a15.018,15.018,0,0,0-5.006,29.177l2.247-9.688a5.254,5.254,0,1,1,5.528-.011l2.236,9.7A15.018,15.018,0,0,0,110.6,95.58" transform="translate(-75.558 -75.558)" fill="#1fdae1"/>
    <path id="Path_220" data-name="Path 220" d="M53.505,64.818A35.038,35.038,0,1,0,35.04,70.079a35.388,35.388,0,0,0,5.006-.356V50.312H30.034v9.255a25.047,25.047,0,1,1,21.024-5.306Z" fill="#1fdae1"/>
    <path id="Path_221" data-name="Path 221" d="M430.516,40.7a3.117,3.117,0,0,1-2.331-.953,3.457,3.457,0,0,1,0-4.714,3.359,3.359,0,0,1,4.687,0,3.528,3.528,0,0,1,0,4.714,3.1,3.1,0,0,1-2.356.953m-2.757,4.412h5.515V69.183h-5.515Z" transform="translate(-337.753 -26.946)"/>
    <path id="Path_222" data-name="Path 222" d="M515.378,48.3v.8a21.9,21.9,0,0,1-2.231,10.428,14.666,14.666,0,0,1-6.092,6.215,18.47,18.47,0,0,1-8.823,2.057,16.859,16.859,0,0,1-6.821-1.4,17.535,17.535,0,0,1-5.614-3.886,18.437,18.437,0,0,1-3.785-5.765,18.009,18.009,0,0,1-1.378-7.045,17.818,17.818,0,0,1,1.378-7.02,18.306,18.306,0,0,1,3.81-5.742,17.254,17.254,0,0,1,5.715-3.861,18.168,18.168,0,0,1,7.1-1.376,18.6,18.6,0,0,1,7.722,1.6,16.14,16.14,0,0,1,5.966,4.563l-3.911,3.911a10.032,10.032,0,0,0-4.16-3.383,13.484,13.484,0,0,0-5.616-1.179,12.443,12.443,0,0,0-6.343,1.58,10.932,10.932,0,0,0-4.236,4.387,13.594,13.594,0,0,0-1.5,6.519,13.551,13.551,0,0,0,1.529,6.542,11.517,11.517,0,0,0,4.135,4.439,11.069,11.069,0,0,0,5.916,1.6A13.27,13.27,0,0,0,504.173,61a8.82,8.82,0,0,0,3.884-3.811,11.329,11.329,0,0,0,1.167-3.635H498.031V48.3Z" transform="translate(-379.948 -25.059)"/>
    <path id="Path_223" data-name="Path 223" d="M681.955,84.851v2.675a9,9,0,0,0-2.482-2,9.912,9.912,0,0,0-4.889-1.179,10.715,10.715,0,0,0-5.891,1.68,12.041,12.041,0,0,0-4.16,4.512,14.02,14.02,0,0,0,0,12.735,11.829,11.829,0,0,0,4.16,4.487,10.853,10.853,0,0,0,5.891,1.655,10.078,10.078,0,0,0,4.914-1.179,8.821,8.821,0,0,0,2.457-1.957v2.635h5.516V84.851Zm-1.529,17.3a6.38,6.38,0,0,1-4.94,2.055,6.665,6.665,0,0,1-3.534-.928,6.511,6.511,0,0,1-2.407-2.583,8.706,8.706,0,0,1,0-7.619,6.511,6.511,0,0,1,2.407-2.583,6.684,6.684,0,0,1,3.534-.928,6.776,6.776,0,0,1,3.584.928,6.358,6.358,0,0,1,2.384,2.583,8.2,8.2,0,0,1,.85,3.811,7.5,7.5,0,0,1-1.879,5.264" transform="translate(-524.114 -66.68)"/>
    <path id="Path_224" data-name="Path 224" d="M846.5,93.375v15.544h-5.516V94.579a4.721,4.721,0,0,0-1.5-3.737,5.411,5.411,0,0,0-3.71-1.328,5.858,5.858,0,0,0-2.656.6,4.639,4.639,0,0,0-1.906,1.73,5.062,5.062,0,0,0-.7,2.734v14.339h-5.516V94.579a4.722,4.722,0,0,0-1.5-3.737,5.408,5.408,0,0,0-3.71-1.328,5.822,5.822,0,0,0-2.682.6,4.664,4.664,0,0,0-1.881,1.73,5.062,5.062,0,0,0-.7,2.734v14.339h-5.516V84.851h5.516V87.31a8.5,8.5,0,0,1,2.306-1.833,9.448,9.448,0,0,1,4.613-1.127,9.6,9.6,0,0,1,4.613,1.1,8.309,8.309,0,0,1,3.134,2.906,9.508,9.508,0,0,1,3.308-2.883,9.886,9.886,0,0,1,4.688-1.127,10,10,0,0,1,4.713,1.1,8.593,8.593,0,0,1,3.358,3.107,8.907,8.907,0,0,1,1.255,4.814" transform="translate(-639.522 -66.68)"/>
    <path id="Path_225" data-name="Path 225" d="M1016.17,40.7a3.117,3.117,0,0,1-2.331-.953,3.456,3.456,0,0,1,0-4.714,3.359,3.359,0,0,1,4.687,0,3.527,3.527,0,0,1,0,4.714,3.1,3.1,0,0,1-2.356.953m-2.758,4.412h5.515V69.183h-5.515Z" transform="translate(-800.721 -26.946)"/>
    <path id="Path_226" data-name="Path 226" d="M1093.082,93.825v15.093h-5.514V95.03a5.42,5.42,0,0,0-1.529-3.961,5.288,5.288,0,0,0-3.936-1.554,5.748,5.748,0,0,0-2.857.7,5.016,5.016,0,0,0-1.957,1.954,5.773,5.773,0,0,0-.7,2.859v13.889h-5.513V84.851h5.513v2.711a8.838,8.838,0,0,1,2.382-1.984,9.431,9.431,0,0,1,4.789-1.228,8.582,8.582,0,0,1,4.812,1.378,9.924,9.924,0,0,1,3.31,3.559,9.276,9.276,0,0,1,1.2,4.537" transform="translate(-846.7 -66.68)"/>
    <path id="Path_227" data-name="Path 227" d="M1214.274,84.851v2.531a8.664,8.664,0,0,0-2.4-1.879,10.48,10.48,0,0,0-5.015-1.152,10.864,10.864,0,0,0-5.79,1.58A11.243,11.243,0,0,0,1197,90.216a12.55,12.55,0,0,0-1.479,6.117A12.829,12.829,0,0,0,1197,102.5a11.149,11.149,0,0,0,4.062,4.336,10.864,10.864,0,0,0,5.79,1.579,10.361,10.361,0,0,0,4.963-1.152,8.672,8.672,0,0,0,2.457-1.934v2.585a5.806,5.806,0,0,1-1.9,4.588,7.541,7.541,0,0,1-5.166,1.68,10.109,10.109,0,0,1-4.46-.9,9.686,9.686,0,0,1-3.31-2.709l-3.609,3.611a11.763,11.763,0,0,0,4.611,3.884,15.186,15.186,0,0,0,6.67,1.381,14.375,14.375,0,0,0,6.618-1.456,11.005,11.005,0,0,0,4.462-4.035,11.2,11.2,0,0,0,1.6-6.042V84.851Zm-.475,15.116a5.907,5.907,0,0,1-2.332,2.382,7,7,0,0,1-3.511.853,7.145,7.145,0,0,1-3.534-.853,5.994,5.994,0,0,1-2.382-2.4,7.912,7.912,0,0,1,0-7.146,6.043,6.043,0,0,1,2.382-2.382,7.145,7.145,0,0,1,3.534-.853,7,7,0,0,1,3.511.853A5.92,5.92,0,0,1,1213.8,92.8a8.178,8.178,0,0,1,0,7.169" transform="translate(-945.08 -66.68)"/>
    <path id="Path_249" data-name="Path 249" d="M436.775,257.861v1.406h-7.122V247.93h1.536v9.932Z" transform="translate(-339.648 -195.992)"/>
    <rect id="Rectangle_303" data-name="Rectangle 303" width="1.536" height="11.337" transform="translate(105.23 51.938)"/>
    <path id="Path_250" data-name="Path 250" d="M555.073,258.818a5.706,5.706,0,0,1-2.271-.45,5.589,5.589,0,0,1-1.821-1.25,5.67,5.67,0,0,1-1.2-1.862,6.323,6.323,0,0,1,0-4.558,5.571,5.571,0,0,1,1.2-1.853,5.922,5.922,0,0,1,6.428-1.233,6.005,6.005,0,0,1,1.8,1.242l-1.062,1.061a3.8,3.8,0,0,0-1.315-.949,4.362,4.362,0,0,0-1.772-.342,4.164,4.164,0,0,0-1.649.319,3.81,3.81,0,0,0-1.307.906,4.107,4.107,0,0,0-.858,1.388,5.208,5.208,0,0,0,0,3.5,4.1,4.1,0,0,0,.858,1.388,3.832,3.832,0,0,0,1.307.906,4.164,4.164,0,0,0,1.649.319A4.5,4.5,0,0,0,556.9,257a3.877,3.877,0,0,0,1.323-.956l1.061,1.046a5.627,5.627,0,0,1-1.838,1.273,5.918,5.918,0,0,1-2.376.458" transform="translate(-434.274 -195.378)"/>
    <path id="Path_251" data-name="Path 251" d="M642.911,257.861v1.406h-7.548V247.93h7.466v1.406H636.9V252.8h5.474v1.341H636.9v3.723Z" transform="translate(-502.265 -195.992)"/>
    <path id="Path_252" data-name="Path 252" d="M719.925,247.93v11.337h-1.079l-6.305-8.421v8.421H711V247.93h1.079l6.305,8.388V247.93Z" transform="translate(-562.059 -195.992)"/>
    <path id="Path_253" data-name="Path 253" d="M794.988,258.818a4.934,4.934,0,0,1-2.287-.49,5.19,5.19,0,0,1-1.682-1.421l1.046-1.046A3.763,3.763,0,0,0,793.306,257a3.579,3.579,0,0,0,1.732.383,2.719,2.719,0,0,0,1.625-.441,1.406,1.406,0,0,0,.613-1.208,1.673,1.673,0,0,0-.294-1.03,2.256,2.256,0,0,0-.792-.646,8.773,8.773,0,0,0-1.086-.457q-.588-.2-1.176-.441a5.141,5.141,0,0,1-1.078-.589,2.612,2.612,0,0,1-.793-.923,3.054,3.054,0,0,1-.3-1.437,2.835,2.835,0,0,1,.465-1.643,3.027,3.027,0,0,1,1.274-1.044,4.35,4.35,0,0,1,1.821-.368,4.464,4.464,0,0,1,1.993.433,4.118,4.118,0,0,1,1.438,1.134l-1.046,1.046a3.6,3.6,0,0,0-1.086-.882,2.91,2.91,0,0,0-1.332-.294,2.383,2.383,0,0,0-1.454.4,1.315,1.315,0,0,0-.539,1.119,1.362,1.362,0,0,0,.3.923,2.482,2.482,0,0,0,.792.6,8.726,8.726,0,0,0,1.086.45q.6.2,1.184.45a4.788,4.788,0,0,1,1.078.62,2.812,2.812,0,0,1,.793.972,3.306,3.306,0,0,1,.3,1.5,2.872,2.872,0,0,1-1.037,2.352,4.3,4.3,0,0,1-2.8.85" transform="translate(-625.313 -195.378)"/>
    <rect id="Rectangle_304" data-name="Rectangle 304" width="1.536" height="11.337" transform="translate(181.797 51.938)"/>
    <path id="Path_254" data-name="Path 254" d="M926.5,247.93v11.337h-1.079l-6.306-8.421v8.421h-1.535V247.93h1.079l6.305,8.388V247.93Z" transform="translate(-725.364 -195.992)"/>
    <path id="Path_255" data-name="Path 255" d="M1010.993,252.607v.228a7.1,7.1,0,0,1-.693,3.308,4.677,4.677,0,0,1-1.927,2,5.816,5.816,0,0,1-2.818.668,5.564,5.564,0,0,1-4.045-1.7,5.918,5.918,0,0,1-1.657-4.15,5.836,5.836,0,0,1,1.667-4.133,5.515,5.515,0,0,1,1.837-1.24,6.2,6.2,0,0,1,4.793.082,5.055,5.055,0,0,1,1.913,1.5L1009,250.238a3.524,3.524,0,0,0-1.42-1.2,4.483,4.483,0,0,0-1.93-.417,4.314,4.314,0,0,0-2.2.555,3.884,3.884,0,0,0-1.485,1.538,5.041,5.041,0,0,0,.008,4.525,4.055,4.055,0,0,0,1.454,1.536,3.963,3.963,0,0,0,2.091.555,4.4,4.4,0,0,0,2.068-.459,3.166,3.166,0,0,0,1.347-1.347,4.1,4.1,0,0,0,.438-1.51h-3.934v-1.406Z" transform="translate(-790.4 -195.376)"/>
  </g>
</svg>
