<svg id="Component_10_36" data-name="Component 10 – 36" xmlns="http://www.w3.org/2000/svg" xmlns:xlink="http://www.w3.org/1999/xlink" width="40" height="40" viewBox="0 0 40 40">
  <defs>
    <clipPath id="clip-path">
      <rect id="Rectangle_55" data-name="Rectangle 55" width="40" height="40" fill="#fff"/>
    </clipPath>
  </defs>
  <g id="Group_48" data-name="Group 48" clip-path="url(#clip-path)">
    <path id="Path_129" data-name="Path 129" d="M20,40A20,20,0,1,1,40,20,20.022,20.022,0,0,1,20,40M20,1.9A18.1,18.1,0,1,0,38.1,20,18.116,18.116,0,0,0,20,1.9" fill="#fff"/>
    <path id="Path_130" data-name="Path 130" d="M14.6,29.286h-4.01V17.255H14.6Zm-2.005-14.37A2.339,2.339,0,1,1,15,12.577a2.379,2.379,0,0,1-2.406,2.339M29.3,29.286h-4.01V22.95c0-1.9-.8-2.58-1.846-2.58a2.324,2.324,0,0,0-2.165,2.475v.011a.835.835,0,0,0,0,.187v6.243H17.27V17.255h3.876v1.738a4.157,4.157,0,0,1,3.61-1.871c2.071,0,4.491,1.149,4.491,4.892Z" fill="#fff"/>
  </g>
</svg>
