<svg xmlns="http://www.w3.org/2000/svg" width="1506.692" height="1490.853" viewBox="0 0 1506.692 1490.853">
  <g id="Group_112" data-name="Group 112" transform="translate(-68.857 -871.849) rotate(31)" opacity="0.2">
    <path id="Path_153" data-name="Path 153" d="M448.061,1.79H76.014A27.649,27.649,0,0,0,48.5,32.157L187.111,1435.482c3.173,32.146,49.486,33.683,54.787,1.814L475.333,33.979A27.646,27.646,0,0,0,448.061,1.79" transform="translate(1447.732 140.272)" fill="#aaa"/>
    <path id="Path_154" data-name="Path 154" d="M27.655,1486.113h372.04a27.649,27.649,0,0,0,27.515-30.367L288.6,52.428c-3.173-32.153-49.486-33.69-54.787-1.821L.382,1453.925a27.647,27.647,0,0,0,27.273,32.189" transform="translate(1152 297.444)" fill="#1fdae1"/>
  </g>
</svg>
