<svg xmlns="http://www.w3.org/2000/svg" width="199.088" height="63.72" viewBox="0 0 199.088 63.72">
  <g id="Group_3" data-name="Group 3" transform="translate(-172.93 -119.163)">
    <g id="Group_2" data-name="Group 2" transform="translate(172.93 119.163)">
      <g id="Group_4" data-name="Group 4">
        <path id="Path_1" data-name="Path 1" d="M325.046,122.664a3.588,3.588,0,0,1,3.9-3.5c2.334,0,3.9,1.449,3.9,3.38a3.92,3.92,0,0,1-7.807.121m.764,6.519h6.278v21.65H325.81Z" transform="translate(-287.438 -119.163)" fill="#1fdae1"/>
        <path id="Path_2" data-name="Path 2" d="M387.679,145.495h5.956v11.428a19.438,19.438,0,0,1-11.388,3.581c-8.853,0-15.372-6.076-15.372-14.567s6.519-14.568,15.493-14.568c4.95,0,9.055,1.69,11.791,4.869l-4.185,3.863a9.533,9.533,0,0,0-7.284-3.179c-5.473,0-9.216,3.662-9.216,9.014,0,5.272,3.743,9.014,9.135,9.014a10.349,10.349,0,0,0,5.07-1.207Z" transform="translate(-318.925 -128.352)" fill="#1fdae1"/>
        <path id="Path_3" data-name="Path 3" d="M506.09,168.009v12.354h-5.875v-2.7c-1.167,1.972-3.42,3.018-6.6,3.018-5.07,0-8.089-2.816-8.089-6.559,0-3.823,2.7-6.479,9.3-6.479h4.99c0-2.7-1.61-4.266-4.99-4.266a10.41,10.41,0,0,0-6.237,2.012l-2.254-4.386a16.641,16.641,0,0,1,9.336-2.616c6.6,0,10.422,3.058,10.422,9.618m-6.278,5.513v-2.213h-4.306c-2.938,0-3.863,1.086-3.863,2.535,0,1.57,1.328,2.616,3.541,2.616a4.625,4.625,0,0,0,4.628-2.938" transform="translate(-408.244 -148.693)" fill="#1fdae1"/>
        <path id="Path_4" data-name="Path 4" d="M618.46,167.967v12.395h-6.278V168.934c0-3.5-1.57-5.111-4.1-5.111-2.817,0-4.789,1.811-4.789,5.674v10.865h-6.278V168.934c0-3.5-1.489-5.111-4.1-5.111-2.777,0-4.748,1.811-4.748,5.674v10.865H581.88v-21.65h6v2.5a8.768,8.768,0,0,1,6.8-2.817,8.081,8.081,0,0,1,7.122,3.541,9.736,9.736,0,0,1,7.807-3.541c5.151,0,8.853,2.978,8.853,9.577" transform="translate(-480.775 -148.692)" fill="#1fdae1"/>
        <path id="Path_5" data-name="Path 5" d="M739.921,122.664a3.588,3.588,0,0,1,3.9-3.5c2.334,0,3.9,1.449,3.9,3.38a3.92,3.92,0,0,1-7.807.121m.765,6.519h6.278v21.65h-6.278Z" transform="translate(-599.744 -119.163)" fill="#1fdae1"/>
        <path id="Path_6" data-name="Path 6" d="M803.72,167.967v12.395h-6.278V168.934c0-3.5-1.61-5.111-4.386-5.111-3.018,0-5.191,1.851-5.191,5.835v10.7h-6.278v-21.65h6v2.535a9.479,9.479,0,0,1,7.163-2.857c5.111,0,8.974,2.978,8.974,9.577" transform="translate(-631.109 -148.692)" fill="#1fdae1"/>
        <path id="Path_7" data-name="Path 7" d="M905.3,158.712V176.74c0,8.048-4.346,11.751-12.153,11.751-4.1,0-8.088-1.006-10.624-2.978l2.495-4.507a12.938,12.938,0,0,0,7.646,2.455c4.427,0,6.359-2.012,6.359-5.915v-.926a8.914,8.914,0,0,1-6.841,2.7c-6,0-10.825-4.145-10.825-10.463s4.829-10.463,10.825-10.463a8.691,8.691,0,0,1,7.163,3.1v-2.777Zm-6.2,10.141c0-3.179-2.374-5.312-5.674-5.312s-5.715,2.133-5.715,5.312,2.415,5.312,5.715,5.312,5.674-2.133,5.674-5.312" transform="translate(-706.213 -148.692)" fill="#1fdae1"/>
        <path id="Path_8" data-name="Path 8" d="M328.214,272.191h4.649v16.3h10.074v3.788H328.214Z" transform="translate(-289.823 -234.358)" fill="#aaa"/>
        <path id="Path_9" data-name="Path 9" d="M394.958,264.589a2.559,2.559,0,0,1,2.784-2.5,2.513,2.513,0,0,1,2.784,2.41,2.8,2.8,0,0,1-5.568.086m.545,4.649h4.477v15.44H395.5Z" transform="translate(-340.066 -226.756)" fill="#aaa"/>
        <path id="Path_10" data-name="Path 10" d="M423.165,298.017c0-4.649,3.588-7.95,8.61-7.95,3.243,0,5.8,1.407,6.917,3.932l-3.473,1.865a3.85,3.85,0,0,0-3.473-2.124,4.283,4.283,0,0,0,0,8.553,3.8,3.8,0,0,0,3.473-2.124l3.473,1.894c-1.119,2.468-3.674,3.9-6.917,3.9-5.022,0-8.61-3.3-8.61-7.95" transform="translate(-361.299 -247.814)" fill="#aaa"/>
        <path id="Path_11" data-name="Path 11" d="M507.951,299.281H496.271c.431,1.923,2.066,3.1,4.42,3.1a5.234,5.234,0,0,0,3.874-1.492l2.382,2.583a8.085,8.085,0,0,1-6.371,2.5c-5.338,0-8.811-3.358-8.811-7.95a7.861,7.861,0,0,1,8.237-7.95,7.644,7.644,0,0,1,8.036,8.007c0,.344-.057.832-.086,1.205m-11.738-2.612h7.605a3.856,3.856,0,0,0-7.605,0" transform="translate(-412.939 -247.815)" fill="#aaa"/>
        <path id="Path_12" data-name="Path 12" d="M581.957,296.9v8.84H577.48v-8.151c0-2.5-1.148-3.645-3.128-3.645-2.152,0-3.7,1.32-3.7,4.161v7.634h-4.477V290.3h4.276V292.1a6.759,6.759,0,0,1,5.109-2.038c3.645,0,6.4,2.124,6.4,6.83" transform="translate(-468.951 -247.814)" fill="#aaa"/>
        <path id="Path_13" data-name="Path 13" d="M638.372,304.3l1.492-3.214a10.562,10.562,0,0,0,5.367,1.492c2.066,0,2.841-.545,2.841-1.406,0-2.526-9.328.057-9.328-6.113,0-2.927,2.641-4.994,7.146-4.994a12.694,12.694,0,0,1,5.941,1.349L650.34,294.6a8.868,8.868,0,0,0-4.448-1.148c-2.009,0-2.87.631-2.87,1.435,0,2.641,9.328.086,9.328,6.171,0,2.87-2.669,4.908-7.29,4.908a13.255,13.255,0,0,1-6.687-1.665" transform="translate(-523.301 -247.814)" fill="#aaa"/>
        <path id="Path_14" data-name="Path 14" d="M701.17,264.589a2.559,2.559,0,0,1,2.784-2.5,2.513,2.513,0,0,1,2.784,2.41,2.8,2.8,0,0,1-5.568.086m.545,4.649h4.477v15.44h-4.477Z" transform="translate(-570.573 -226.756)" fill="#aaa"/>
        <path id="Path_15" data-name="Path 15" d="M746.67,296.9v8.84h-4.477v-8.151c0-2.5-1.148-3.645-3.128-3.645-2.152,0-3.7,1.32-3.7,4.161v7.634h-4.477V290.3h4.276V292.1a6.759,6.759,0,0,1,5.108-2.038c3.645,0,6.4,2.124,6.4,6.83" transform="translate(-592.942 -247.814)" fill="#aaa"/>
        <path id="Path_16" data-name="Path 16" d="M819.117,290.3v12.857c0,5.74-3.1,8.38-8.667,8.38a12.721,12.721,0,0,1-7.577-2.124l1.779-3.215a9.228,9.228,0,0,0,5.453,1.751c3.157,0,4.535-1.435,4.535-4.219v-.66a6.357,6.357,0,0,1-4.879,1.923c-4.276,0-7.72-2.956-7.72-7.462s3.444-7.462,7.72-7.462a6.2,6.2,0,0,1,5.108,2.21V290.3Zm-4.42,7.232a4.071,4.071,0,1,0-4.047,3.788,3.749,3.749,0,0,0,4.047-3.788" transform="translate(-646.506 -247.815)" fill="#aaa"/>
        <path id="Path_17" data-name="Path 17" d="M235.18,120.954H222.253a.961.961,0,0,0-.956,1.055l4.816,48.762a.961.961,0,0,0,1.9.063l8.111-48.761a.961.961,0,0,0-.948-1.118" transform="translate(-209.335 -120.511)" fill="#aaa"/>
        <path id="Path_18" data-name="Path 18" d="M173.891,197.339h12.927a.961.961,0,0,0,.956-1.055l-4.816-48.761a.961.961,0,0,0-1.9-.063l-8.111,48.761a.961.961,0,0,0,.948,1.118" transform="translate(-172.93 -139.859)" fill="#1fdae1"/>
      </g>
    </g>
  </g>
</svg>
